<svg width="14" height="10" viewBox="0 0 14 10" fill="none" xmlns="http://www.w3.org/2000/svg">
<path fill-rule="evenodd" clip-rule="evenodd" d="M13.707 0.293C13.8945 0.480528 13.9998 0.734836 13.9998 1C13.9998 1.26516 13.8945 1.51947 13.707 1.707L5.70698 9.707C5.51945 9.89447 5.26514 9.99979 4.99998 9.99979C4.73482 9.99979 4.48051 9.89447 4.29298 9.707L0.29298 5.707C0.110822 5.5184 0.0100274 5.2658 0.0123059 5.0036C0.0145843 4.7414 0.119753 4.49059 0.305161 4.30518C0.490569 4.11977 0.741382 4.0146 1.00358 4.01233C1.26578 4.01005 1.51838 4.11084 1.70698 4.293L4.99998 7.586L12.293 0.293C12.4805 0.105529 12.7348 0.000213623 13 0.000213623C13.2651 0.000213623 13.5195 0.105529 13.707 0.293Z" fill="black"/>
</svg>
