<svg height="40" viewBox="0 0 54 54" fill="none" xmlns="http://www.w3.org/2000/svg">
<rect width="54" height="54" rx="6" fill="white"/>
<path d="M44.1 18H23.4C22.905 18 22.5 17.595 22.5 17.1V15.3C22.5 14.805 22.905 14.4 23.4 14.4H44.1C44.595 14.4 45 14.805 45 15.3V17.1C45 17.595 44.595 18 44.1 18Z" fill="url(#paint0_linear)"/>
<path d="M11.4849 19.5687L8.3313 16.4151C8.0235 16.1073 8.0235 15.6078 8.3313 15.3L9.4464 14.1849C9.7542 13.8771 10.2537 13.8771 10.5615 14.1849L12.0429 15.6663L16.6788 11.0304C16.9866 10.7226 17.4861 10.7226 17.7939 11.0304L18.909 12.1455C19.2168 12.4533 19.2168 12.9528 18.909 13.2606L12.6 19.5687C12.2922 19.8774 11.7927 19.8774 11.4849 19.5687Z" fill="#42A4EB"/>
<path d="M44.1 28.8H23.4C22.905 28.8 22.5 28.395 22.5 27.9V26.1C22.5 25.605 22.905 25.2 23.4 25.2H44.1C44.595 25.2 45 25.605 45 26.1V27.9C45 28.395 44.595 28.8 44.1 28.8Z" fill="url(#paint1_linear)"/>
<path d="M11.4849 30.3687L8.3313 27.2151C8.0235 26.9073 8.0235 26.4078 8.3313 26.1L9.4464 24.9849C9.7542 24.6771 10.2537 24.6771 10.5615 24.9849L12.0429 26.4663L16.6788 21.8304C16.9866 21.5226 17.4861 21.5226 17.7939 21.8304L18.909 22.9455C19.2168 23.2533 19.2168 23.7528 18.909 24.0606L12.6 30.3687C12.2922 30.6774 11.7927 30.6774 11.4849 30.3687Z" fill="#42A4EB"/>
<path d="M44.1 39.6H23.4C22.905 39.6 22.5 39.195 22.5 38.7V36.9C22.5 36.405 22.905 36 23.4 36H44.1C44.595 36 45 36.405 45 36.9V38.7C45 39.195 44.595 39.6 44.1 39.6Z" fill="url(#paint2_linear)"/>
<path d="M13.5 35.1C12.0087 35.1 10.8 36.3087 10.8 37.8C10.8 39.2913 12.0087 40.5 13.5 40.5C14.9913 40.5 16.2 39.2913 16.2 37.8C16.2 36.3087 14.9913 35.1 13.5 35.1Z" fill="url(#paint3_linear)"/>
<defs>
<linearGradient id="paint0_linear" x1="27.2034" y1="9.65339" x2="39.7242" y2="22.1742" gradientUnits="userSpaceOnUse">
<stop stop-color="#0074D9"/>
<stop offset="1" stop-color="#001F3F"/>
</linearGradient>
<linearGradient id="paint1_linear" x1="27.2034" y1="20.4534" x2="39.7242" y2="32.9742" gradientUnits="userSpaceOnUse">
<stop stop-color="#0074D9"/>
<stop offset="1" stop-color="#001F3F"/>
</linearGradient>
<linearGradient id="paint2_linear" x1="27.2034" y1="31.2534" x2="39.7242" y2="43.7742" gradientUnits="userSpaceOnUse">
<stop stop-color="#0074D9"/>
<stop offset="1" stop-color="#001F3F"/>
</linearGradient>
<linearGradient id="paint3_linear" x1="10.8" y1="37.8" x2="16.2" y2="37.8" gradientUnits="userSpaceOnUse">
<stop stop-color="#0074D9"/>
<stop offset="1" stop-color="#001F3F"/>
</linearGradient>
</defs>
</svg>
