<svg width="98" height="29" viewBox="0 0 98 29" fill="none" xmlns="http://www.w3.org/2000/svg">
<path d="M12.456 15.4L10.116 15.256V20.224C10.116 20.872 10.212 21.34 10.404 21.628C10.62 21.916 11.004 22.06 11.556 22.06C12.132 22.06 12.564 22.084 12.852 22.132C13.164 22.156 13.488 22.264 13.824 22.456C14.376 22.768 14.652 23.572 14.652 24.868C14.652 26.38 14.316 27.304 13.644 27.64C13.284 27.808 12.96 27.916 12.672 27.964C12.408 27.988 12.012 28 11.484 28C8.988 28 7.092 27.436 5.796 26.308C4.5 25.18 3.852 23.272 3.852 20.584V15.256C3.396 15.328 2.904 15.364 2.376 15.364C1.848 15.364 1.404 15.16 1.044 14.752C0.708 14.344 0.54 13.648 0.54 12.664C0.54 11.68 0.6 10.972 0.72 10.54C0.84 10.084 1.008 9.76 1.224 9.568C1.608 9.256 2.088 9.1 2.664 9.1L3.852 9.244V5.536C3.852 4.984 3.864 4.576 3.888 4.312C3.936 4.048 4.056 3.76 4.248 3.448C4.56 2.848 5.484 2.548 7.02 2.548C8.652 2.548 9.624 2.992 9.936 3.88C10.056 4.264 10.116 4.876 10.116 5.716V9.244C11.172 9.148 11.964 9.1 12.492 9.1C13.044 9.1 13.452 9.124 13.716 9.172C14.004 9.196 14.328 9.304 14.688 9.496C15.312 9.808 15.624 10.732 15.624 12.268C15.624 13.78 15.3 14.704 14.652 15.04C14.292 15.208 13.968 15.316 13.68 15.364C13.416 15.388 13.008 15.4 12.456 15.4ZM17.0719 18.532C17.0719 15.652 18.0799 13.276 20.0959 11.404C22.1119 9.532 24.4159 8.596 27.0079 8.596C29.5999 8.596 31.8919 9.532 33.8839 11.404C35.8759 13.252 36.8719 15.616 36.8719 18.496C36.8719 20.488 36.3559 22.264 35.3239 23.824C34.2919 25.36 33.0319 26.5 31.5439 27.244C30.0799 27.964 28.5559 28.324 26.9719 28.324C25.3879 28.324 23.8519 27.94 22.3639 27.172C20.8759 26.38 19.6159 25.228 18.5839 23.716C17.5759 22.18 17.0719 20.452 17.0719 18.532ZM24.5959 21.124C25.3639 21.7 26.1439 21.988 26.9359 21.988C27.7279 21.988 28.5199 21.688 29.3119 21.088C30.1039 20.488 30.4999 19.6 30.4999 18.424C30.4999 17.248 30.1279 16.372 29.3839 15.796C28.6399 15.22 27.8359 14.932 26.9719 14.932C26.1079 14.932 25.3039 15.232 24.5599 15.832C23.8159 16.432 23.4439 17.32 23.4439 18.496C23.4439 19.648 23.8279 20.524 24.5959 21.124ZM51.9058 1.144C52.0978 0.783998 52.4218 0.531999 52.8778 0.387999C53.3338 0.243998 53.9338 0.171998 54.6778 0.171998C55.4458 0.171998 56.0578 0.243998 56.5138 0.387999C56.9698 0.531999 57.2818 0.783998 57.4498 1.144C57.6418 1.504 57.7498 1.828 57.7738 2.116C57.8218 2.38 57.8458 2.788 57.8458 3.34V24.832C57.8458 25.384 57.8218 25.804 57.7738 26.092C57.7498 26.356 57.6418 26.656 57.4498 26.992C57.0898 27.64 56.0698 27.964 54.3898 27.964C52.7338 27.964 51.8098 27.376 51.6178 26.2C50.6098 27.352 49.2058 27.928 47.4058 27.928C45.2458 27.928 43.2778 26.992 41.5018 25.12C39.7258 23.224 38.8378 21.028 38.8378 18.532C38.8378 16.012 39.7258 13.804 41.5018 11.908C43.3018 10.012 45.2698 9.064 47.4058 9.064C49.1818 9.064 50.5618 9.664 51.5458 10.864V3.304C51.5458 2.752 51.5578 2.344 51.5818 2.08C51.6298 1.792 51.7378 1.48 51.9058 1.144ZM46.0738 20.692C46.6978 21.34 47.4538 21.664 48.3418 21.664C49.2298 21.664 49.9618 21.34 50.5378 20.692C51.1378 20.044 51.4378 19.336 51.4378 18.568C51.4378 17.776 51.1498 17.044 50.5738 16.372C50.0218 15.7 49.2658 15.364 48.3058 15.364C47.3458 15.364 46.5778 15.7 46.0018 16.372C45.4258 17.02 45.1378 17.74 45.1378 18.532C45.1378 19.324 45.4498 20.044 46.0738 20.692ZM60.1734 18.532C60.1734 15.652 61.1814 13.276 63.1974 11.404C65.2134 9.532 67.5174 8.596 70.1094 8.596C72.7014 8.596 74.9934 9.532 76.9854 11.404C78.9774 13.252 79.9734 15.616 79.9734 18.496C79.9734 20.488 79.4574 22.264 78.4254 23.824C77.3934 25.36 76.1334 26.5 74.6454 27.244C73.1814 27.964 71.6574 28.324 70.0734 28.324C68.4894 28.324 66.9534 27.94 65.4654 27.172C63.9774 26.38 62.7174 25.228 61.6854 23.716C60.6774 22.18 60.1734 20.452 60.1734 18.532ZM67.6974 21.124C68.4654 21.7 69.2454 21.988 70.0374 21.988C70.8294 21.988 71.6214 21.688 72.4134 21.088C73.2054 20.488 73.6014 19.6 73.6014 18.424C73.6014 17.248 73.2294 16.372 72.4854 15.796C71.7414 15.22 70.9374 14.932 70.0734 14.932C69.2094 14.932 68.4054 15.232 67.6614 15.832C66.9174 16.432 66.5454 17.32 66.5454 18.496C66.5454 19.648 66.9294 20.524 67.6974 21.124ZM82.4434 26.308C81.9874 26.02 81.7594 25.564 81.7594 24.94C81.7594 24.316 82.2154 23.368 83.1274 22.096C83.3914 21.688 83.8114 21.484 84.3874 21.484C84.9874 21.484 85.7914 21.784 86.7994 22.384C87.8074 22.96 88.7194 23.248 89.5354 23.248C90.9994 23.248 91.7314 22.96 91.7314 22.384C91.7314 21.928 90.9274 21.592 89.3194 21.376C87.8074 21.16 86.3074 20.596 84.8194 19.684C84.1234 19.252 83.5474 18.58 83.0914 17.668C82.6354 16.732 82.4074 15.628 82.4074 14.356C82.4074 10.564 85.0114 8.668 90.2194 8.668C91.9234 8.668 93.6754 9.076 95.4754 9.892C96.3154 10.276 96.7354 10.756 96.7354 11.332C96.7354 11.908 96.4714 12.616 95.9434 13.456C95.4154 14.296 94.8754 14.716 94.3234 14.716C94.0354 14.716 93.4954 14.536 92.7034 14.176C91.9354 13.816 91.0954 13.636 90.1834 13.636C88.7674 13.636 88.0594 13.9 88.0594 14.428C88.0594 15.148 88.8754 15.616 90.5074 15.832C92.0914 16 93.6274 16.456 95.1154 17.2C95.8114 17.536 96.3874 18.124 96.8434 18.964C97.3234 19.78 97.5634 20.812 97.5634 22.06C97.5634 23.308 97.3234 24.376 96.8434 25.264C96.3874 26.128 95.7394 26.776 94.8994 27.208C93.3634 27.952 91.4314 28.324 89.1034 28.324C86.7994 28.324 84.5794 27.652 82.4434 26.308Z" fill="white"/>
</svg>
